<?xml version="1.0" encoding="UTF-8"?>
<svg id="Layer_1" xmlns="http://www.w3.org/2000/svg" version="1.1" xmlns:xlink="http://www.w3.org/1999/xlink" viewBox="0 0 800 800">
  <!-- Generator: Adobe Illustrator 29.8.2, SVG Export Plug-In . SVG Version: 2.1.1 Build 3)  -->
  <defs>
    <style>
      .st0 {
        fill: #fff;
      }

      .st1 {
        fill: url(#linear-gradient);
      }
    </style>
    <linearGradient id="linear-gradient" x1="197.67" y1="719.95" x2="594.44" y2="96.46" gradientTransform="translate(0 802) scale(1 -1)" gradientUnits="userSpaceOnUse">
      <stop offset="0" stop-color="#01c3cc"/>
      <stop offset=".1" stop-color="#04bcce"/>
      <stop offset=".23" stop-color="#0faad3"/>
      <stop offset=".39" stop-color="#228ddc"/>
      <stop offset=".56" stop-color="#3b64e9"/>
      <stop offset=".67" stop-color="#4d47f3"/>
      <stop offset=".75" stop-color="#5f3aee"/>
      <stop offset=".86" stop-color="#732dea"/>
      <stop offset=".93" stop-color="#7b29e9"/>
    </linearGradient>
  </defs>
  <path class="st1" d="M557.67,365.8v-.03c-3.38,0-5.7,5.73-5.7,11.3,0,9.28,4.52,19.53,10.27,25.28,2.37-6.22,3.4-12.88,3.53-19.53,0-11.3-4.58-17.02-8.1-17.02ZM557.67,365.8v-.03c-3.38,0-5.7,5.73-5.7,11.3,0,9.28,4.52,19.53,10.27,25.28,2.37-6.22,3.4-12.88,3.53-19.53,0-11.3-4.58-17.02-8.1-17.02ZM400,0C179.03,0,0,179.02,0,400s179.02,400,400,400,400-179.02,400-400S620.98,0,400,0ZM664,393.36c-1.18-6.9-8.07-9.23-14.98-9.23-22.8,0-37.62,29.67-34.28,53.78,1.18,9.1,5.73,19.4,14.87,19.4,6.9,0,17.18-10.3,21.72-25.12,2.2-9.1,11.47-17.2,19.4-17.2,3.5,0,5.73,1.18,6.9,5.73,0,2.37,0,6.9-4.58,21.78-5.73,10.27-5.73,16-4.52,20.57,1.03,9.1,5.6,16,10.27,19.4,1.03,1.18,2.23,3.38,2.23,3.38,0,2.37-1.2,4.7-4.58,4.7-1.18,0-2.23,0-3.4-1.18-17.18-6.9-24.07-18.38-26.3-29.83-6.9,8.07-14.83,12.62-24.07,12.62-14.87,0-29.58-13.68-31.9-30.88-.68-7.28.1-14.7,2.48-21.6-6.77,4.3-14.07,6.77-20.83,6.77h-5.6c-14.97,21.72-31,36.6-42.33,43.38-3.9,2.08-8.2,3.28-12.62,3.5-2.2,0-5.7-1.18-6.77-3.5-3.22-5.07-5.2-13.02-6.5-22.13-16.03,17.43-38.18,26.8-48.43,26.8-11.47,0-18.23-6.9-19.4-18.32v-12.5c3.38-25.12,12.62-40.1,12.62-44.67-.12-1.17-1.07-2.22-2.37-2.33-7.92,0-34.22,27.47-38.8,45.82l-3.5,14.83c-2.22,10.27-12.5,17.18-19.4,17.18-3.4,0-5.73-1.18-6.77-5.7v-4.58l1.43-7.8c-14.47,10.27-28.92,16.9-35.82,16.9-10.28,0-16-5.73-17.02-13.8-6.9,9.28-14.88,13.8-25.13,13.8-11.88,0-23.3-8.07-28.78-19.78-8.23,9.22-17.48,18.48-28.4,25.5-16,10.3-34.22,18.23-56,18.23-19.4,0-36.58-10.3-45.7-19.4-13.8-12.62-21.72-32.03-22.9-50.27-6.77-55.98,27.47-128,79.93-160.03,12.63-6.9,25.27-11.42,37.77-11.42l.05-.1.04-.06c25.13,0,44.67,18.32,46.88,39.97,2.38,19.53-5.73,36.6-27.33,46.88-11.47,5.73-16.02,5.73-18.37,2.33-1.17-2.33,0-4.52,2.33-6.9,20.6-17.02,20.6-30.82,18.23-50.22-1.17-12.63-10.28-20.6-19.4-20.6-40.1,0-97.13,89.07-89.2,154.3,3.52,25.12,18.38,54.83,50.27,54.83,10.3,0,21.78-3.4,32.03-7.92,16.67-8.87,26.7-15.62,36.6-26.7-2.47-29.58,23.43-68.23,61.7-68.23,17.2,0,30.87,6.9,32.03,19.53,2.22,17.08-12.63,19.4-17.18,19.4s-12.63-1.18-12.63-5.73c-1.03-4.58,10.28-2.33,9.23-12.63-1.17-6.9-8.07-9.1-14.83-9.1-24.1,0-37.77,33.2-34.38,53.62,1.17,9.22,5.7,18.38,14.97,18.38,6.77,0,17.07-10.3,20.43-25.12,2.33-10.3,11.47-17.2,19.53-17.2,3.4,0,5.6,1.18,6.77,5.73v4.58c-1.03,4.58-4.57,18.38-3.38,21.72,0,2.37,1.17,5.73,5.7,5.73,3,0,14.47-6,25.92-15.37,3.78-19.68,8.33-43.23,8.33-45.18,1.17-8.07,4.57-16.02,20.57-16.02,3.5,0,5.73,1.17,6.9,5.73v4.57l-4.58,20.58c14.87-19.4,36.6-33.07,50.27-33.07,5.73,0,10.3,3.38,10.3,9.1,0,3.4,0,9.12-2.37,14.88-4.52,12.5-10.27,32.02-13.68,49.08,0,4.58,1.18,9.12,6.9,9.12s22.8-6.77,36.47-25.12l.27-.12c0-2.23-.27-4.43-.27-6.62,0-13.8,1.18-25.13,3.53-33.2,2.33-9.12,13.68-17.07,20.57-17.07,3.38,0,6.9,2.2,6.9,5.6,0,1.17,0,3.5-1.18,4.57-4.58,14.97-8.1,28.63-8.1,42.3,0,8.07,1.2,19.4,3.53,26.3,0,1.18,1.03,2.33,2.2,2.33,2.37,0,18.38-14.83,29.7-34.38-10.3-6.77-16.03-18.23-16.03-31.9,0-24.08,15-36.6,28.67-36.6,11.47,0,20.57,7.98,20.57,23.97,0,10.3-3.4,21.78-9.1,32.03h3.38c7.3.27,14.48-2.72,19.4-7.92,1.18-1.82,2.72-3.12,4.58-3.9,11.2-14.2,27.6-24.73,47-24.73,16,0,30.73,6.9,31.9,19.4,2.33,17.17-12.62,20.58-17.2,20.58s-12.6-1.18-12.6-5.73,10.27-2.33,9.22-12.5ZM557.67,365.8v-.03c-3.38,0-5.7,5.73-5.7,11.3,0,9.28,4.52,19.53,10.27,25.28,2.37-6.22,3.4-12.88,3.53-19.53,0-11.3-4.58-17.02-8.1-17.02Z"/>
  <path class="st0" d="M668.53,463.07c-1.21-4.57-1.21-10.3,4.52-20.57,4.58-14.88,4.58-19.41,4.58-21.78-1.17-4.55-3.4-5.73-6.9-5.73-7.93,0-17.2,8.1-19.4,17.2-4.54,14.82-14.82,25.12-21.72,25.12-9.14,0-13.69-10.3-14.87-19.4-3.34-24.11,11.48-53.78,34.28-53.78,6.91,0,13.8,2.33,14.98,9.23,1.05,10.17-9.22,7.95-9.22,12.5s8.02,5.73,12.6,5.73,19.53-3.41,17.2-20.58c-1.17-12.5-15.9-19.4-31.9-19.4-19.4,0-35.8,10.53-47,24.73-1.86.78-3.4,2.08-4.58,3.9-4.92,5.2-12.1,8.19-19.4,7.92h-3.38c5.7-10.25,9.1-21.73,9.1-32.03,0-15.99-9.1-23.97-20.57-23.97-13.67,0-28.67,12.52-28.67,36.6,0,13.67,5.73,25.13,16.03,31.9-11.32,19.55-27.33,34.38-29.7,34.38-1.17,0-2.2-1.15-2.2-2.33-2.33-6.9-3.53-18.23-3.53-26.3,0-13.67,3.52-27.33,8.1-42.3,1.18-1.07,1.18-3.4,1.18-4.57,0-3.4-3.52-5.6-6.9-5.6-6.89,0-18.24,7.95-20.57,17.07-2.35,8.07-3.53,19.4-3.53,33.2,0,2.19.27,4.39.27,6.62l-.27.12c-13.67,18.35-30.75,25.12-36.47,25.12s-6.9-4.54-6.9-9.12c3.41-17.06,9.16-36.58,13.68-49.08,2.37-5.76,2.37-11.48,2.37-14.88,0-5.72-4.57-9.1-10.3-9.1-13.67,0-35.4,13.67-50.27,33.07l4.58-20.58v-4.57c-1.17-4.56-3.4-5.73-6.9-5.73-16,0-19.4,7.95-20.57,16.02,0,1.95-4.55,25.5-8.33,45.18-11.45,9.37-22.92,15.37-25.92,15.37-4.53,0-5.7-3.36-5.7-5.73-1.19-3.34,2.35-17.14,3.38-21.72v-4.58c-1.17-4.55-3.37-5.73-6.77-5.73-8.06,0-17.2,6.9-19.53,17.2-3.36,14.82-13.66,25.12-20.43,25.12-9.27,0-13.8-9.16-14.97-18.38-3.39-20.42,10.28-53.62,34.38-53.62,6.76,0,13.66,2.2,14.83,9.1,1.05,10.3-10.26,8.05-9.23,12.63,0,4.55,8.08,5.73,12.63,5.73s19.4-2.32,17.18-19.4c-1.16-12.63-14.83-19.53-32.03-19.53-38.27,0-64.17,38.65-61.7,68.23-9.9,11.08-19.93,17.83-36.6,26.7-10.25,4.52-21.73,7.92-32.03,7.92-31.89,0-46.75-29.71-50.27-54.83-7.93-65.23,49.1-154.3,89.2-154.3,9.12,0,18.23,7.97,19.4,20.6,2.37,19.4,2.37,33.2-18.23,50.22-2.33,2.38-3.5,4.57-2.33,6.9,2.35,3.4,6.9,3.4,18.37-2.33,21.6-10.28,29.71-27.35,27.33-46.88-2.21-21.65-21.75-39.97-46.88-39.97l-.04.06-.05.1c-12.5,0-25.14,4.52-37.77,11.42-52.46,32.03-86.7,104.05-79.93,160.03,1.18,18.24,9.1,37.65,22.9,50.27,9.12,9.1,26.3,19.4,45.7,19.4,21.78,0,40-7.93,56-18.23,10.92-7.02,20.17-16.28,28.4-25.5,5.48,11.71,16.9,19.78,28.78,19.78,10.25,0,18.23-4.52,25.13-13.8,1.02,8.07,6.74,13.8,17.02,13.8,6.9,0,21.35-6.63,35.82-16.9l-1.43,7.8v4.58c1.04,4.52,3.37,5.7,6.77,5.7,6.9,0,17.18-6.91,19.4-17.18l3.5-14.83c4.58-18.35,30.88-45.82,38.8-45.82,1.3.11,2.25,1.16,2.37,2.33,0,4.57-9.24,19.55-12.62,44.67v12.5c1.17,11.42,7.93,18.32,19.4,18.32,10.25,0,32.4-9.37,48.43-26.8,1.3,9.11,3.28,17.06,6.5,22.13,1.07,2.32,4.57,3.5,6.77,3.5,4.42-.22,8.72-1.42,12.62-3.5,11.33-6.78,27.36-21.66,42.33-43.38h5.6c6.76,0,14.06-2.47,20.83-6.77-2.38,6.9-3.16,14.32-2.48,21.6,2.32,17.2,17.03,30.88,31.9,30.88,9.24,0,17.17-4.55,24.07-12.62,2.23,11.45,9.12,22.93,26.3,29.83,1.17,1.18,2.22,1.18,3.4,1.18,3.38,0,4.58-2.33,4.58-4.7,0,0-1.2-2.2-2.23-3.38-4.67-3.4-9.24-10.3-10.27-19.4ZM562.24,402.35c-5.75-5.75-10.27-16-10.27-25.28,0-5.57,2.32-11.3,5.7-11.3v.03c3.52,0,8.1,5.72,8.1,17.02-.13,6.65-1.16,13.31-3.53,19.53Z"/>
</svg>