<?xml version="1.0" encoding="UTF-8"?>
<svg id="Layer_1" data-name="Layer 1" xmlns="http://www.w3.org/2000/svg" viewBox="0 0 64 64">
  <defs>
    <style>
      .cls-1 {
        fill: #fff;
      }
    </style>
  </defs>
  <rect class="cls-1" width="64" height="64"/>
  <g>
    <path d="M7.32,27.36c5.75-16.9,27.11-10.22,24.44,6.84H9.27c-.61,9.25,9.23,15.47,16.85,9.27,1.46-1.18,2.14-3.21,3.92-3.41,1.97-.22-1.15,3.62-1.69,4.18-7.15,7.36-18.92,3.06-21.04-6.62-.65-3.83-.74-7.31,0-10.26ZM29.8,32.24c1.44-16.98-22.06-16.84-20.53,0h20.53Z"/>
    <path d="M43.97,31.29s6.43-9.54,9.26-12.03c.79-.7,1.31-.9,2.47-.7l-10.27,13.91,10.76,14.42c-.81.08-1.57-.03-2.32-.37-2.7-1.21-7.42-10.48-9.9-12.82,0,0-8.2,14.59-12.22,13.18l10.76-14.42-10.27-13.91c1.93-.36,2.99,1.18,4.16,2.43,2.51,2.69,5.38,7.26,7.57,10.29Z"/>
  </g>
</svg>