<?xml version="1.0" encoding="UTF-8"?>
<svg id="Layer_1" xmlns="http://www.w3.org/2000/svg" version="1.1" viewBox="0 0 800 800">
  <!-- Generator: Adobe Illustrator 29.8.2, SVG Export Plug-In . SVG Version: 2.1.1 Build 3)  -->
  <defs>
    <style>
      .st0 {
        fill: #fff;
      }
    </style>
  </defs>
  <path class="st0" d="M593.73,750.12c-2.97,1.57-2.72,2.08.12.62.93-.37,1.7-.9,2.37-1.53q0-.52-2.5.9h0ZM599.73,746.88q-1.42,1.18.27.4c.9-.52,1.7-1.03,1.7-1.18,0-.68-.4-.52-1.98.78ZM603.63,744.53q-1.42,1.18.27.4c.93-.52,1.7-1.07,1.7-1.2,0-.62-.4-.5-1.98.8ZM607.57,742.2q-1.42,1.18.23.37c.93-.5,1.7-1.03,1.7-1.18,0-.62-.4-.5-1.92.8h0ZM612.9,738.68c-2.72,1.82-3.67,3-1.18,1.7,1.67-1.03,4.52-3.28,4.02-3.28-1.07.4-1.98,1.07-2.87,1.57h.03ZM373.83.27c-1.82.12-7.3.62-12.1,1.03C248.02,11.6,141.65,72.8,74.22,167.08,36.95,218.75,12.75,278.78,3.62,341.8.4,363.8,0,370.3,0,400.12s.4,36.2,3.62,58.2c21.78,150.27,128.67,276.42,273.57,323.18,26.08,8.33,53.4,14.07,84.53,17.6,12.1,1.3,64.42,1.3,76.53,0,53.8-6,99.22-19.27,144.18-42.2,6.9-3.5,8.2-4.43,7.28-5.2-22-29.02-43.6-58.07-65.22-87.37l-63.92-86.32-80.08-118.62c-26.7-39.7-53.5-79.3-80.73-118.6-.27,0-.62,52.73-.78,117.02-.27,112.63-.27,117.2-1.7,119.8-1.43,3.12-3.78,5.73-6.9,7.18-2.47,1.18-4.7,1.42-16.53,1.42h-13.53l-3.52-2.2c-2.2-1.42-4.03-3.4-5.2-5.73l-1.7-3.53.13-156.77.27-156.77,2.47-3.12c1.57-1.92,3.52-3.5,5.73-4.68,3.27-1.57,4.57-1.82,18.1-1.82,15.88,0,18.5.62,22.67,5.2,32.4,48.3,64.7,96.72,96.48,145.3,51.98,78.8,122.92,186.32,157.8,239.07l63.43,95.98,3.12-2.08c30.47-20.32,58.2-44.53,82.12-72.13,50.4-57.7,83.1-128.67,94.18-204.43,3.22-22,3.63-28.53,3.63-58.33s-.4-36.2-3.63-58.2c-21.78-150.28-128.67-276.43-273.58-323.2-27.1-8.57-54.97-14.43-83.2-17.43-7.57-.77-59.28-1.7-65.78-1.03l-.03-.05ZM537.5,242.2c3.77,1.8,6.62,5.2,7.92,9.1.68,2.1.8,45.57.68,143.5l-.27,140.6-24.73-38-24.88-38.02v-102.08c0-66.18.27-103.28.62-105.1,1.18-4.17,4.02-7.68,7.82-9.88,3.1-1.57,4.3-1.7,16.67-1.7,11.57,0,13.53.13,16.13,1.57h.03Z"/>
</svg>